<svg width="36" height="36" viewBox="0 0 36 36" fill="none" xmlns="http://www.w3.org/2000/svg">
<g id="Google">
<g id="super-g">
<path id="Shape" d="M18.0002 13.2157C19.4649 13.2157 20.4529 13.8484 21.0162 14.377L23.2176 12.2277C21.8656 10.971 20.1062 10.1997 18.0002 10.1997C14.9496 10.1997 12.3149 11.9504 11.0322 14.4984L13.5542 16.457C14.1869 14.5764 15.9376 13.2157 18.0002 13.2157Z" fill="#EA4335"/>
<path id="Shape_2" d="M25.488 18.1728C25.488 17.5315 25.436 17.0635 25.3233 16.5781H18V19.4728H22.2987C22.212 20.1921 21.744 21.2755 20.704 22.0035L23.1653 23.9101C24.6387 22.5495 25.488 20.5475 25.488 18.1728Z" fill="#4285F4"/>
<path id="Shape_3" d="M13.5629 19.542C13.3982 19.0567 13.3029 18.5367 13.3029 17.9994C13.3029 17.462 13.3982 16.942 13.5542 16.4567L11.0322 14.498C10.5035 15.5554 10.2002 16.7427 10.2002 17.9994C10.2002 19.256 10.5035 20.4434 11.0322 21.5007L13.5629 19.542Z" fill="#FBBC05"/>
<path id="Shape_4" d="M18.0003 25.7998C20.1063 25.7998 21.8743 25.1065 23.1657 23.9105L20.7043 22.0038C20.0457 22.4631 19.1617 22.7838 18.0003 22.7838C15.9377 22.7838 14.187 21.4231 13.563 19.5425L11.041 21.5011C12.3237 24.0491 14.9497 25.7998 18.0003 25.7998Z" fill="#34A853"/>
</g>
</g>
</svg>
