<svg width="36" height="36" viewBox="0 0 36 36" fill="none" xmlns="http://www.w3.org/2000/svg">
<g id="Google">
<path id="back" d="M0 18C0 8.05887 8.05887 0 18 0C27.9411 0 36 8.05887 36 18C36 27.9411 27.9411 36 18 36C8.05887 36 0 27.9411 0 18Z" fill="white"/>
<g id="super-g">
<path id="Shape" d="M17.9997 13.2162C19.4644 13.2162 20.4524 13.8489 21.0157 14.3775L23.2171 12.2282C21.8651 10.9715 20.1057 10.2002 17.9997 10.2002C14.9491 10.2002 12.3144 11.9509 11.0317 14.4989L13.5537 16.4575C14.1864 14.5769 15.9371 13.2162 17.9997 13.2162V13.2162Z" fill="#EA4335"/>
<path id="Shape_2" d="M25.488 18.1733C25.488 17.5319 25.436 17.0639 25.3233 16.5786H18V19.4733H22.2987C22.212 20.1926 21.744 21.2759 20.704 22.0039L23.1653 23.9106C24.6387 22.5499 25.488 20.5479 25.488 18.1733V18.1733Z" fill="#4285F4"/>
<path id="Shape_3" d="M13.5624 19.5425C13.3977 19.0572 13.3024 18.5372 13.3024 17.9999C13.3024 17.4625 13.3977 16.9425 13.5537 16.4572L11.0317 14.4985C10.503 15.5559 10.1997 16.7432 10.1997 17.9999C10.1997 19.2565 10.503 20.4439 11.0317 21.5012L13.5624 19.5425V19.5425Z" fill="#FBBC05"/>
<path id="Shape_4" d="M17.9999 25.8003C20.1059 25.8003 21.8739 25.107 23.1652 23.911L20.7039 22.0043C20.0452 22.4636 19.1612 22.7843 17.9999 22.7843C15.9372 22.7843 14.1865 21.4236 13.5625 19.543L11.0405 21.5016C12.3232 24.0496 14.9492 25.8003 17.9999 25.8003V25.8003Z" fill="#34A853"/>
</g>
</g>
</svg>
