<?xml version="1.0" encoding="utf-8"?><!-- Uploaded to: SVG Repo, www.svgrepo.com, Generator: SVG Repo Mixer Tools -->
<svg version="1.1" id="designs" xmlns="http://www.w3.org/2000/svg" xmlns:xlink="http://www.w3.org/1999/xlink" 
	 width="800px" height="800px" viewBox="0 0 32 32" xml:space="preserve">
<style type="text/css">
	.sketchy_een{fill:#111918;}
</style>
<path class="sketchy_een" d="M25.775,5.07c-0.031-0.334-0.052-0.661-0.048-0.997c0.006-0.392,0.002-0.785-0.006-1.179
	c-0.008-0.462-0.379-0.849-0.849-0.849c-0.148,0-0.285,0.053-0.411,0.125c-0.133-0.039-0.275-0.049-0.42-0.018
	c-0.027,0.005-0.053,0.01-0.08,0.015c-0.268,0.021-0.539,0.02-0.807,0.027c-0.35,0.008-0.698,0.027-1.046,0.041
	c-0.665,0.023-1.33,0.013-1.995,0.008c-0.738-0.006-1.477-0.031-2.215-0.029c-0.725,0-1.45,0-2.173-0.004
	c-0.644-0.004-1.286-0.015-1.929-0.015c-0.694,0-1.386-0.014-2.08-0.017c-0.259,0-0.518,0-0.777,0c-0.389,0-0.777,0-1.166-0.006
	c-0.707-0.01-1.411-0.079-2.113-0.168C7.644,2.001,7.627,2,7.609,2c-0.09,0-0.185,0.029-0.274,0.071
	C7.257,2.047,7.177,2.023,7.094,2.023c-0.224,0-0.443,0.091-0.601,0.249c-0.17,0.17-0.228,0.369-0.249,0.601
	C6.188,3.554,6.18,4.24,6.17,4.922C6.166,5.125,6.168,5.328,6.172,5.531c0.002,0.263-0.014,0.545,0.07,0.798
	c0.078,0.239,0.25,0.42,0.461,0.521c0.107,0.23,0.323,0.392,0.576,0.437C7.277,7.31,7.266,7.329,7.266,7.351
	C7.252,7.867,7.26,8.383,7.26,8.899c-0.002,0.44,0.072,0.871,0.134,1.305c0.023,0.188,0.046,0.376,0.08,0.561
	c0.039,0.205,0.114,0.402,0.184,0.599c0.133,0.375,0.274,0.754,0.468,1.102c0.068,0.12,0.133,0.242,0.199,0.361
	c0.124,0.234,0.317,0.445,0.495,0.642c0.283,0.309,0.584,0.585,0.912,0.843c0.387,0.305,0.768,0.617,1.218,0.824
	c0.401,0.185,0.793,0.378,1.182,0.586c0.015,0.037,0.01,0.079,0.031,0.114c0.036,0.084,0.074,0.167,0.11,0.25
	c0.009,0.024,0.018,0.048,0.026,0.073c-0.005,0.008-0.009,0.017-0.014,0.025c-0.068,0.07-0.142,0.134-0.218,0.196
	c-0.162,0.112-0.34,0.196-0.507,0.301c-0.261,0.162-0.52,0.346-0.737,0.564c-0.276,0.28-0.535,0.576-0.804,0.862
	c-0.191,0.203-0.383,0.402-0.557,0.62c-0.274,0.346-0.549,0.694-0.806,1.054c-0.249,0.348-0.437,0.754-0.593,1.152
	c-0.155,0.387-0.286,0.777-0.404,1.175c-0.112,0.373-0.174,0.752-0.238,1.135c-0.044,0.276-0.099,0.553-0.122,0.831
	c-0.008,0.101-0.008,0.199-0.006,0.298c0,0.109-0.005,0.221-0.007,0.332c-0.28,0.054-0.501,0.277-0.578,0.551
	c-0.208,0.143-0.359,0.368-0.345,0.631c0.016,0.307,0.044,0.615,0.056,0.922c0.012,0.269,0.012,0.537,0.021,0.806
	c0.017,0.477,0.031,0.955,0.035,1.432c0.004,0.439,0.363,0.804,0.804,0.804c0.198,0,0.393-0.087,0.544-0.221
	c0.19-0.001,0.38,0,0.569-0.002c0.394-0.008,0.791-0.014,1.185-0.004c0.296,0.008,0.593,0.029,0.891,0.025
	c0.338-0.006,0.677-0.019,1.015-0.031c0.408-0.012,0.82-0.008,1.229-0.004c0.29,0.002,0.582,0.004,0.874,0
	c0.74-0.008,1.483,0.002,2.225,0.006c0.692,0.006,1.382,0.019,2.072,0.025c0.777,0.008,1.556,0,2.331,0.058
	c0.342,0.025,0.68,0.066,1.023,0.075c0.321,0.01,0.64,0.014,0.961,0.043c0.596,0.058,1.199,0.053,1.793,0.117
	c0.107,0.014,0.209,0.017,0.308,0.003C24.389,29.976,24.484,30,24.583,30c0.211,0,0.416-0.085,0.564-0.234
	c0.215-0.215,0.259-0.489,0.205-0.777c-0.002-0.011-0.004-0.022-0.006-0.033c-0.036-0.375-0.026-0.758-0.023-1.134
	c0.008-0.661,0.039-1.322,0.056-1.983c0.011-0.41-0.336-0.746-0.733-0.776c-0.001-0.061,0.008-0.124-0.014-0.177
	c-0.016-0.042-0.027-0.086-0.035-0.131c-0.094-0.769-0.147-1.542-0.306-2.301c-0.035-0.162-0.072-0.325-0.128-0.481
	c-0.075-0.216-0.178-0.423-0.273-0.632c-0.147-0.331-0.278-0.669-0.437-0.996c-0.071-0.149-0.166-0.286-0.245-0.431
	c-0.091-0.164-0.174-0.331-0.259-0.497c-0.193-0.377-0.41-0.744-0.68-1.073c-0.52-0.638-1.137-1.233-1.902-1.568
	c-0.118-0.052-0.239-0.091-0.36-0.129c0.119-0.039,0.237-0.077,0.351-0.126c0.259-0.108,0.506-0.23,0.756-0.361
	c0.619-0.323,1.106-0.872,1.502-1.436c0.22-0.313,0.421-0.64,0.63-0.963c0.201-0.309,0.4-0.619,0.549-0.957
	c0.338-0.777,0.617-1.579,0.721-2.424c0.027-0.209,0.033-0.418,0.046-0.628c0.017-0.259,0.048-0.518,0.077-0.775
	c0.06-0.564,0.135-1.125,0.207-1.688c0.003-0.02-0.003-0.042-0.003-0.062c0.044,0.007,0.085,0.026,0.13,0.026
	c0.218,0,0.431-0.087,0.586-0.242c0.172-0.172,0.213-0.358,0.244-0.588C25.862,5.977,25.818,5.517,25.775,5.07z M10.046,3.681
	c0.315,0.002,0.63,0.002,0.945,0.002c0.421-0.002,0.841-0.002,1.262,0c0.783,0.002,1.566,0.006,2.349,0.025
	c0.738,0.017,1.477,0.006,2.215,0.004c1.305,0,2.608-0.002,3.913-0.006c0.613,0,1.227-0.002,1.84-0.037
	c0.5-0.029,1-0.023,1.499-0.045c0.029,0.482,0.057,0.964,0.095,1.446c0.021,0.266,0.022,0.539,0.013,0.811
	c-0.119,0.005-0.232,0.03-0.33,0.083c-0.644,0.026-1.289,0.021-1.934,0.019c-0.75-0.002-1.502-0.004-2.252-0.006
	c-1.531-0.006-3.06,0.004-4.589-0.025c-0.617-0.012-1.233-0.017-1.848-0.039c-0.605-0.021-1.21-0.068-1.815-0.093
	C10.218,5.772,9.023,5.742,7.828,5.74C7.827,5.625,7.829,5.509,7.829,5.394c0.002-0.195,0.004-0.391,0-0.584
	C7.824,4.407,7.848,4.008,7.88,3.608C8.601,3.672,9.321,3.678,10.046,3.681z M13.925,21.156c0.063-0.026,0.125-0.052,0.188-0.078
	c0.086-0.036,0.172-0.072,0.258-0.109c0.237-0.096,0.477-0.179,0.729-0.229c0.375-0.035,0.761-0.022,1.137,0.014
	c0.573,0.098,1.115,0.295,1.669,0.472c0.29,0.093,0.574,0.211,0.854,0.331c0.302,0.126,0.607,0.247,0.909,0.371
	c0.585,0.247,1.178,0.48,1.766,0.724c0.398,0.183,0.771,0.41,1.164,0.603c0.121,0.058,0.242,0.089,0.366,0.1
	c0.028,0.175,0.057,0.35,0.081,0.523c0.032,0.244,0.065,0.489,0.086,0.735c0.012,0.137,0.023,0.272,0.032,0.407
	c-0.479-0.008-0.96-0.06-1.433-0.081c-0.259-0.012-0.516-0.027-0.775-0.027c-0.284,0-0.566,0.023-0.851,0.025
	c-0.738,0.004-1.477-0.006-2.215-0.016c-0.831-0.01-1.664-0.021-2.497-0.013c-1.258,0.012-2.513-0.081-3.771-0.081
	c-0.634,0-1.268,0.004-1.902-0.019c-0.254-0.009-0.508-0.029-0.763-0.043c-0.004-0.051,0.01-0.1-0.005-0.151
	c-0.001-0.002-0.001-0.003-0.002-0.005c-0.009-0.201,0.003-0.402,0-0.604c-0.002-0.125,0.016-0.248,0.027-0.371
	c0.1-0.042,0.201-0.084,0.302-0.126c0.082-0.035,0.163-0.069,0.245-0.104c0.825-0.348,1.605-0.784,2.381-1.228
	c0.715-0.408,1.45-0.775,2.208-1.096C14.048,21.103,13.987,21.13,13.925,21.156z M22.232,28.25c-0.68-0.041-1.365-0.068-2.047-0.097
	c-1.558-0.068-3.12-0.077-4.68-0.085c-1.386-0.008-2.77-0.01-4.156,0.027c-0.313,0.01-0.624,0.004-0.936,0.002
	c-0.296-0.002-0.592,0.019-0.885,0.029c-0.509,0.015-1.018-0.01-1.526-0.036c-0.013-0.251-0.021-0.502-0.025-0.751
	c-0.007-0.367-0.018-0.735-0.031-1.103c0.746,0.027,1.491,0.047,2.238,0.046c0.787-0.002,1.577-0.012,2.364,0.019
	c0.783,0.031,1.558,0.124,2.341,0.143c0.737,0.019,1.473,0.023,2.211,0.016c0.704-0.008,1.407-0.017,2.111-0.012
	c0.309,0.002,0.617,0.008,0.926,0.029c0.242,0.015,0.481,0.039,0.723,0.044c0.497,0.012,0.994,0.019,1.49,0.023
	c0.484,0.005,0.967,0.019,1.451,0.017c-0.004,0.588-0.008,1.177-0.01,1.765c-0.155-0.004-0.31-0.001-0.464-0.009
	C22.961,28.298,22.597,28.271,22.232,28.25z M22.383,12.058c-0.164,0.356-0.38,0.686-0.585,1.021
	c-0.199,0.324-0.404,0.646-0.63,0.952c-0.171,0.198-0.363,0.389-0.565,0.559c-0.14,0.097-0.29,0.18-0.435,0.265
	c-0.124,0.073-0.248,0.145-0.377,0.207c-0.209,0.078-0.431,0.143-0.646,0.186c-0.029,0.006-0.049,0.027-0.077,0.036
	c-0.046-0.022-0.085-0.055-0.137-0.069c-0.072-0.02-0.146-0.03-0.22-0.03c-0.377,0-0.75,0.248-0.839,0.631
	c-0.043,0.186-0.077,0.369-0.099,0.559c-0.021,0.17,0,0.333,0.035,0.503c0.064,0.298,0.265,0.591,0.487,0.794
	c0.274,0.251,0.622,0.412,0.984,0.495c0.135,0.031,0.265,0.059,0.395,0.103c0.268,0.13,0.524,0.288,0.766,0.463
	c0.255,0.216,0.479,0.468,0.699,0.718c0.316,0.446,0.542,0.946,0.835,1.404c0.066,0.104,0.123,0.212,0.18,0.321
	c-0.302-0.128-0.607-0.252-0.911-0.368c-0.766-0.294-1.531-0.588-2.297-0.883c-0.362-0.139-0.729-0.253-1.096-0.371
	c-0.367-0.118-0.729-0.232-1.11-0.294c-0.376-0.063-0.766-0.104-1.154-0.104c-0.463,0-0.924,0.059-1.359,0.213
	c-0.483,0.172-0.955,0.398-1.423,0.607c-0.429,0.191-0.849,0.404-1.26,0.626c-0.697,0.377-1.392,0.75-2.108,1.087
	c0.03-0.082,0.054-0.167,0.086-0.25c0.098-0.22,0.203-0.436,0.32-0.648c0.095-0.173,0.218-0.333,0.339-0.49
	c0.279-0.36,0.552-0.728,0.871-1.056c0.201-0.207,0.404-0.408,0.607-0.613c0.142-0.143,0.278-0.291,0.431-0.422
	c0.184-0.126,0.383-0.224,0.582-0.328c0.255-0.135,0.489-0.311,0.706-0.499c0.244-0.209,0.414-0.52,0.489-0.829
	c0.064-0.263,0.046-0.495,0.002-0.76c-0.035-0.201-0.133-0.398-0.213-0.586c-0.078-0.185-0.167-0.328-0.326-0.442
	c-0.063-0.169-0.18-0.344-0.341-0.419c-0.377-0.178-0.742-0.379-1.121-0.553c-0.336-0.154-0.64-0.324-0.934-0.547
	c-0.12-0.095-0.242-0.189-0.364-0.283c-0.309-0.248-0.59-0.536-0.842-0.843c-0.089-0.134-0.158-0.282-0.233-0.425
	c-0.064-0.119-0.125-0.239-0.181-0.362c-0.164-0.407-0.304-0.834-0.376-1.267C8.916,9.868,8.896,9.671,8.872,9.473
	C8.853,9.301,8.831,9.131,8.828,8.957C8.818,8.42,8.866,7.886,8.889,7.351C8.89,7.326,8.877,7.304,8.876,7.279
	c0.293-0.008,0.586-0.02,0.878-0.022c0.655-0.006,1.309,0.031,1.962,0.044c1.407,0.029,2.815,0.054,4.224,0.044
	c1.363-0.008,2.726,0.012,4.088,0.012c1.039,0,2.079,0.001,3.118,0.009c-0.103,0.94-0.128,1.887-0.238,2.826
	C22.81,10.828,22.62,11.462,22.383,12.058z M9.69,14.279c0.014,0.011,0.028,0.022,0.042,0.033c0.001,0.001,0.002,0.002,0.003,0.002
	C9.72,14.302,9.705,14.291,9.69,14.279z M9.519,23.404c0.001,0,0.001-0.001,0.001-0.001l0.002-0.001
	C9.522,23.403,9.521,23.403,9.519,23.404z M9.154,23.558c0.041-0.017,0.082-0.035,0.122-0.052c0.024-0.01,0.047-0.02,0.071-0.029
	C9.283,23.504,9.22,23.531,9.154,23.558z"/>
</svg>